<svg xmlns="http://www.w3.org/2000/svg" width="200" height="200" viewBox="0 0 200 200">
  <g>
    <path d="m 50.882147,175.92144 c -11.583798,-1.6895 -20.909788,-6.00682 -27.061056,-12.52748 -7.010812,-7.43183 -9.579107,-14.77178 -9.490088,-27.12178 0.09997,-13.86434 3.075787,-24.71085 11.414298,-41.603263 l 4.821249,-9.767028 0.903515,2.201986 c 0.496966,1.211097 2.248648,6.03179 3.892694,10.71266 l 2.989173,8.510675 -2.503882,6.61942 c -5.080513,13.43114 -7.721476,29.41845 -6.288348,38.06709 1.934722,11.67568 9.32957,19.07085 21.899439,21.90039 5.87449,1.32239 24.356682,1.14591 32.151429,-0.30697 12.67968,-2.36342 26.11686,-7.91464 36.34928,-15.01675 16.72121,-11.60586 29.15364,-23.26801 37.89431,-35.54652 5.80409,-8.15333 6.96935,-9.43521 7.99865,-8.79907 1.27209,0.7862 0.74695,7.13356 -0.8507,10.28236 -5.32554,10.49607 -20.07427,25.24306 -33.92132,33.91731 -3.22437,2.01984 -6.00432,3.86187 -6.17769,4.09339 -0.1734,0.23154 -2.30103,1.41238 -4.72815,2.62414 -11.46908,5.72602 -24.888777,9.80245 -37.873385,11.50458 -7.821733,1.02535 -25.171858,1.1661 -31.419418,0.25486 z m 1.61294,-35.7199 C 32.252514,83.153891 18.462242,44.932247 16.163212,39.502664 14.909388,36.541506 11.887024,33.18154 9.2209834,31.784949 8.1807894,31.240054 5.7694281,30.625953 3.8624108,30.42029 0.50120127,30.057799 0.38905437,29.983663 0.19755213,27.997495 L 0,25.948633 h 26.517591 26.517595 v 1.84589 c 0,1.776272 -0.136782,1.862374 -3.624915,2.282601 -4.928153,0.593703 -7.26604,1.655021 -8.995306,4.08356 -2.570661,3.610155 -2.054445,6.177547 5.937967,29.532336 12.456019,36.39802 25.145597,71.97725 25.535973,71.59813 0.205758,-0.19979 5.639789,-15.45098 12.075644,-33.89145 L 95.666084,67.871572 92.884918,59.991325 C 91.355279,55.657182 89.371349,50.056598 88.476183,47.545578 l -1.627586,-4.565491 1.53309,-1.651163 C 95.499562,33.662871 111.1389,25.948633 119.56268,25.948633 h 4.07958 v 1.827276 c 0,1.796897 -0.0721,1.834522 -4.33918,2.263045 -4.94328,0.496445 -7.69272,1.899746 -9.57565,4.887398 -1.49606,2.373811 -1.34303,6.766473 0.46594,13.37495 0.74726,2.729825 22.8306,66.117178 30.1852,86.642658 0.1731,0.48305 0.46559,0.72735 0.65005,0.54291 0.51696,-0.51696 24.1345,-69.034023 25.18514,-73.064863 1.93092,-7.408094 0.77192,-18.506843 -2.52598,-24.189022 -2.23154,-3.844891 -7.72943,-8.670928 -12.37541,-10.863102 -6.78707,-3.20245 -10.68871,-3.988369 -21.75823,-4.382861 -9.29898,-0.331427 -10.55954,-0.243024 -14.81487,1.038769 -6.65705,2.005236 -16.729259,7.007258 -21.726842,10.789911 -10.988088,8.316858 -21.94436,19.894152 -33.57504,35.478135 l -6.042263,8.096054 -2.701659,-8.077568 c -1.485918,-4.442661 -2.701659,-8.34104 -2.701659,-8.663071 0,-1.02576 13.340402,-14.199496 19.227817,-18.987602 13.000143,-10.572729 27.965175,-17.907892 43.337496,-21.242021 5.38651,-1.168294 8.46496,-1.405187 18.44369,-1.419296 13.60966,-0.0189 20.1945,0.761118 30.19688,3.578586 6.91625,1.948161 7.19517,1.973722 23.90011,2.190357 L 200,25.988489 l -0.19604,2.028939 c -0.18652,1.930149 -0.35074,2.047832 -3.37254,2.416676 -5.02261,0.613077 -7.96057,2.617496 -11.44406,7.807736 -1.98409,2.956192 -4.38549,9.484676 -17.27586,46.966308 -6.61808,19.243582 -12.43388,35.948202 -12.92399,37.121362 -1.24796,2.98729 -8.70104,11.67148 -14.21602,16.56427 -6.7255,5.96674 -14.4329,11.93683 -14.97664,11.60079 -0.25844,-0.15977 -5.97804,-15.75051 -12.71016,-34.64612 -6.73213,-18.895632 -12.43203,-34.012968 -12.66644,-33.594098 -0.363021,0.648741 -27.309216,76.417788 -30.925098,86.957298 -1.163104,3.39019 -1.372562,3.62422 -3.234625,3.61416 l -1.990991,-0.011 -11.572456,-32.61348 z m 78.771833,27.24349 c -1.07298,-2.96534 -1.95088,-5.6178 -1.95088,-5.89436 0,-0.27659 2.34044,-2.07695 5.20097,-4.00086 2.86053,-1.92391 6.40665,-4.4024 7.88025,-5.50774 1.47361,-1.10535 2.67929,-1.83806 2.67929,-1.62825 0,0.3501 -6.28648,18.78099 -7.27174,21.31949 -0.2877,0.74118 -1.11062,1.10324 -2.50761,1.10324 -2.03808,0 -2.11816,-0.10711 -4.03028,-5.39152 z M 75.815547,31.282528 c -1.166687,-0.506502 -2.91654,-0.920961 -3.888567,-0.920961 -2.864473,0 -3.761703,-0.617548 -3.761703,-2.589127 V 25.948633 H 78.56721 c 5.721063,0 10.401936,0.11864 10.401936,0.26366 0,0.219931 -10.68257,6.091063 -10.94592,6.015885 -0.04739,-0.01323 -1.040991,-0.439132 -2.207679,-0.945627 z" />
  </g>
</svg>