<?xml version="1.0" encoding="UTF-8" standalone="no"?>
<svg
   xmlns:dc="http://purl.org/dc/elements/1.1/"
   xmlns:cc="http://creativecommons.org/ns#"
   xmlns:rdf="http://www.w3.org/1999/02/22-rdf-syntax-ns#"
   xmlns:svg="http://www.w3.org/2000/svg"
   xmlns="http://www.w3.org/2000/svg"
   xmlns:sodipodi="http://sodipodi.sourceforge.net/DTD/sodipodi-0.dtd"
   xmlns:inkscape="http://www.inkscape.org/namespaces/inkscape"
   width="200mm"
   height="200mm"
   viewBox="0 0 200 200"
   version="1.1"
   id="svg8"
   inkscape:version="1.0.1 (c497b03c, 2020-09-10)"
   sodipodi:docname="logo-dark.svg"
   inkscape:export-filename="/Users/joshcena/Desktop/work/Tech/HTML/Personal-page/static/img/logo-dark.png"
   inkscape:export-xdpi="100.203"
   inkscape:export-ydpi="100.203">
  <defs
     id="defs2" />
  <sodipodi:namedview
     id="base"
     pagecolor="#ffffff"
     bordercolor="#666666"
     borderopacity="1.0"
     inkscape:pageopacity="0.0"
     inkscape:pageshadow="2"
     inkscape:zoom="0.82715308"
     inkscape:cx="275.75235"
     inkscape:cy="391.59087"
     inkscape:document-units="mm"
     inkscape:current-layer="layer3"
     inkscape:document-rotation="0"
     showgrid="false"
     inkscape:window-width="1440"
     inkscape:window-height="855"
     inkscape:window-x="0"
     inkscape:window-y="23"
     inkscape:window-maximized="0" />
  <metadata
     id="metadata5">
    <rdf:RDF>
      <cc:Work
         rdf:about="">
        <dc:format>image/svg+xml</dc:format>
        <dc:type
           rdf:resource="http://purl.org/dc/dcmitype/StillImage" />
        <dc:title />
      </cc:Work>
    </rdf:RDF>
  </metadata>
  <g
     inkscape:groupmode="layer"
     id="layer3"
     inkscape:label="Layer 2" />
  <g
     inkscape:label="Layer 1"
     inkscape:groupmode="layer"
     id="layer1"
     style="display:inline">
    <rect
       style="fill:#ffffff;fill-opacity:1;stroke-width:0.392631"
       id="rect833"
       width="150"
       height="20"
       x="25"
       y="33.983944" />
    <path
       id="circle1124"
       style="fill:#39cac4;fill-opacity:1;stroke-width:1.12104"
       d="M 529.13477 335.25977 A 151.1811 151.1811 0 0 0 377.95312 486.44141 A 151.1811 151.1811 0 0 0 529.13477 637.62109 A 151.1811 151.1811 0 0 0 662.23438 558.13086 L 591.41211 529.28125 A 75.590551 75.590551 0 0 1 529.13477 562.03125 A 75.590551 75.590551 0 0 1 453.54297 486.44141 A 75.590551 75.590551 0 0 1 529.13477 410.84961 A 75.590551 75.590551 0 0 1 594.47656 448.43555 L 664.01758 418.16211 A 151.1811 151.1811 0 0 0 529.13477 335.25977 z "
       transform="scale(0.26458333)" />
    <path
       id="rect861"
       style="opacity:1;fill:#ffffff;fill-opacity:1;stroke-width:1.09927"
       d="M 362.1543 143.46289 L 196.62891 547.29883 L 107.0332 476.04688 L 59.4375 534.78125 L 224.77734 666.27148 L 226.36328 664.31445 L 269.625 568.52344 L 432.05469 172.23633 L 362.1543 143.46289 z "
       transform="scale(0.26458333)" />
  </g>
</svg>
