<?xml version="1.0" encoding="UTF-8" standalone="no"?>
<svg
   xmlns:dc="http://purl.org/dc/elements/1.1/"
   xmlns:cc="http://creativecommons.org/ns#"
   xmlns:rdf="http://www.w3.org/1999/02/22-rdf-syntax-ns#"
   xmlns:svg="http://www.w3.org/2000/svg"
   xmlns="http://www.w3.org/2000/svg"
   xmlns:sodipodi="http://sodipodi.sourceforge.net/DTD/sodipodi-0.dtd"
   xmlns:inkscape="http://www.inkscape.org/namespaces/inkscape"
   width="200mm"
   height="200mm"
   viewBox="0 0 200 200"
   version="1.1"
   id="svg8"
   inkscape:version="1.0.1 (c497b03c, 2020-09-10)"
   sodipodi:docname="logo.svg"
   inkscape:export-filename="/Users/joshcena/Desktop/work/Tech/HTML/Personal-page/static/img/logo.png"
   inkscape:export-xdpi="100.203"
   inkscape:export-ydpi="100.203">
  <defs
     id="defs2" />
  <sodipodi:namedview
     id="base"
     pagecolor="#ffffff"
     bordercolor="#666666"
     borderopacity="1.0"
     inkscape:pageopacity="0.0"
     inkscape:pageshadow="2"
     inkscape:zoom="0.82715308"
     inkscape:cx="279.37925"
     inkscape:cy="381.91914"
     inkscape:document-units="mm"
     inkscape:current-layer="layer1"
     inkscape:document-rotation="0"
     showgrid="false"
     inkscape:window-width="1440"
     inkscape:window-height="855"
     inkscape:window-x="0"
     inkscape:window-y="23"
     inkscape:window-maximized="0" />
  <metadata
     id="metadata5">
    <rdf:RDF>
      <cc:Work
         rdf:about="">
        <dc:format>image/svg+xml</dc:format>
        <dc:type
           rdf:resource="http://purl.org/dc/dcmitype/StillImage" />
        <dc:title />
      </cc:Work>
    </rdf:RDF>
  </metadata>
  <g
     inkscape:groupmode="layer"
     id="layer3"
     inkscape:label="Layer 2">
    <rect
       style="fill:#ffffff;fill-opacity:1;stroke-width:0.251463;opacity:0"
       id="rect854"
       width="200"
       height="200"
       x="0"
       y="0" />
  </g>
  <g
     inkscape:groupmode="layer"
     id="layer2"
     inkscape:label="Layer 3" />
  <g
     inkscape:label="Layer 1"
     inkscape:groupmode="layer"
     id="layer1">
    <rect
       style="fill:#000000;fill-opacity:1;stroke-width:0.392631"
       id="rect833"
       width="150"
       height="20"
       x="25"
       y="33.983944" />
    <path
       id="path839"
       style="fill:#39cac4;fill-opacity:1;stroke-width:1.12104"
       d="M 529.13477 335.25977 A 151.1811 151.1811 0 0 0 377.95312 486.44141 A 151.1811 151.1811 0 0 0 529.13477 637.62109 A 151.1811 151.1811 0 0 0 662.23438 558.13086 L 591.41211 529.28125 A 75.590551 75.590551 0 0 1 590.99414 529.88086 A 75.590551 75.590551 0 0 1 590.69922 530.30078 A 75.59055 75.59055 0 0 1 590.57227 530.47852 A 75.590551 75.590551 0 0 1 590.27148 530.89258 A 75.59055 75.59055 0 0 1 590.14258 531.07031 A 75.590551 75.590551 0 0 1 589.83984 531.48242 A 75.59055 75.59055 0 0 1 589.70898 531.6582 A 75.590551 75.590551 0 0 1 589.40039 532.06836 A 75.59055 75.59055 0 0 1 589.26758 532.24219 A 75.590551 75.590551 0 0 1 589.26172 532.25 A 75.590551 75.590551 0 0 1 588.82227 532.82031 A 75.590551 75.590551 0 0 1 588.37109 533.39648 A 75.590551 75.590551 0 0 1 587.91406 533.9668 A 75.590551 75.590551 0 0 1 587.45117 534.5332 A 75.590551 75.590551 0 0 1 587.125 534.92773 A 75.59055 75.59055 0 0 1 586.98438 535.0957 A 75.590551 75.590551 0 0 1 586.6543 535.48633 A 75.59055 75.59055 0 0 1 586.51172 535.65234 A 75.590551 75.590551 0 0 1 586.42773 535.75 A 75.590551 75.590551 0 0 1 586.03125 536.20508 A 75.590551 75.590551 0 0 1 585.69336 536.58984 A 75.59055 75.59055 0 0 1 585.67188 536.61328 A 75.59055 75.59055 0 0 1 585.38477 536.93555 A 75.590551 75.590551 0 0 1 585.06836 537.28516 A 75.59055 75.59055 0 0 1 585.05859 537.29688 A 75.590551 75.590551 0 0 1 584.71289 537.67383 A 75.59055 75.59055 0 0 1 584.56445 537.83398 A 75.590551 75.590551 0 0 1 584.21484 538.20898 A 75.59055 75.59055 0 0 1 584.06445 538.36914 A 75.590551 75.590551 0 0 1 583.98047 538.45703 A 75.590551 75.590551 0 0 1 583.56055 538.89648 A 75.590551 75.590551 0 0 1 583.20312 539.26562 A 75.59055 75.59055 0 0 1 583.16406 539.30664 A 75.59055 75.59055 0 0 1 582.76562 539.70703 A 75.590551 75.590551 0 0 1 582.68945 539.78516 A 75.59055 75.59055 0 0 1 582.53516 539.93945 A 75.590551 75.590551 0 0 1 582.17188 540.30078 A 75.59055 75.59055 0 0 1 582.13086 540.3418 A 75.59055 75.59055 0 0 1 581.72656 540.73633 A 75.590551 75.590551 0 0 1 581.64844 540.81055 A 75.59055 75.59055 0 0 1 581.49023 540.96289 A 75.590551 75.590551 0 0 1 581.11914 541.31641 A 75.59055 75.59055 0 0 1 581.10352 541.33203 A 75.59055 75.59055 0 0 1 580.67188 541.73438 A 75.590551 75.590551 0 0 1 580.58594 541.81641 A 75.59055 75.59055 0 0 1 580.42578 541.96484 A 75.590551 75.590551 0 0 1 580.35156 542.03125 A 75.590551 75.590551 0 0 1 579.89453 542.45117 A 75.59055 75.59055 0 0 1 579.88672 542.45898 A 75.590551 75.590551 0 0 1 579.86914 542.47461 A 75.590551 75.590551 0 0 1 579.3418 542.94727 A 75.590551 75.590551 0 0 1 578.79297 543.42969 A 75.590551 75.590551 0 0 1 578.40625 543.76562 A 75.59055 75.59055 0 0 1 578.24023 543.9082 A 75.590551 75.590551 0 0 1 577.84961 544.24023 A 75.59055 75.59055 0 0 1 577.68164 544.38086 A 75.590551 75.590551 0 0 1 577.65625 544.40234 A 75.590551 75.590551 0 0 1 577.11914 544.84766 A 75.590551 75.590551 0 0 1 576.72266 545.17188 A 75.59055 75.59055 0 0 1 576.55273 545.30859 A 75.590551 75.590551 0 0 1 576.46289 545.37891 A 75.590551 75.590551 0 0 1 575.98047 545.76367 A 75.590551 75.590551 0 0 1 575.57812 546.08008 A 75.59055 75.59055 0 0 1 575.4043 546.21484 A 75.590551 75.590551 0 0 1 574.99805 546.52734 A 75.59055 75.59055 0 0 1 574.82422 546.66016 A 75.590551 75.590551 0 0 1 574.41602 546.9668 A 75.59055 75.59055 0 0 1 574.24023 547.09766 A 75.590551 75.590551 0 0 1 574.13086 547.17773 A 75.590551 75.590551 0 0 1 573.65039 547.53125 A 75.590551 75.590551 0 0 1 573.23633 547.83203 A 75.59055 75.59055 0 0 1 573.05859 547.95898 A 75.590551 75.590551 0 0 1 572.96875 548.02148 A 75.590551 75.590551 0 0 1 572.46094 548.38086 A 75.590551 75.590551 0 0 1 571.85938 548.79688 A 75.590551 75.590551 0 0 1 571.25391 549.20703 A 75.590551 75.590551 0 0 1 570.82812 549.49219 A 75.59055 75.59055 0 0 1 570.80078 549.50977 A 75.59055 75.59055 0 0 1 570.24219 549.875 A 75.590551 75.590551 0 0 1 570.2168 549.89258 A 75.59055 75.59055 0 0 1 570.0332 550.01172 A 75.590551 75.590551 0 0 1 569.60156 550.28711 A 75.59055 75.59055 0 0 1 569.41602 550.4043 A 75.590551 75.590551 0 0 1 568.98242 550.67578 A 75.59055 75.59055 0 0 1 568.79492 550.79102 A 75.590551 75.590551 0 0 1 568.35938 551.05664 A 75.59055 75.59055 0 0 1 568.17188 551.16992 A 75.590551 75.590551 0 0 1 568.0625 551.23633 A 75.590551 75.590551 0 0 1 567.54297 551.54492 A 75.590551 75.590551 0 0 1 567.10156 551.80469 A 75.59055 75.59055 0 0 1 566.91211 551.91406 A 75.590551 75.590551 0 0 1 566.46875 552.16797 A 75.59055 75.59055 0 0 1 566.27734 552.27539 A 75.590551 75.590551 0 0 1 565.67773 552.61133 A 75.59055 75.59055 0 0 1 565.63867 552.63281 A 75.590551 75.590551 0 0 1 565.54688 552.68164 A 75.590551 75.590551 0 0 1 564.99609 552.98242 A 75.590551 75.590551 0 0 1 564.39844 553.30078 A 75.59055 75.59055 0 0 1 564.35156 553.32617 A 75.590551 75.590551 0 0 1 563.89844 553.5625 A 75.59055 75.59055 0 0 1 563.875 553.57422 A 75.59055 75.59055 0 0 1 563.44141 553.79688 A 75.590551 75.590551 0 0 1 563.24609 553.89648 A 75.59055 75.59055 0 0 1 563.05078 553.99414 A 75.590551 75.590551 0 0 1 562.59375 554.22266 A 75.59055 75.59055 0 0 1 562.53711 554.25 A 75.59055 75.59055 0 0 1 561.93555 554.54297 A 75.59055 75.59055 0 0 1 561.5 554.75 A 75.590551 75.590551 0 0 1 561.07617 554.94922 A 75.590551 75.590551 0 0 1 560.41211 555.25586 A 75.590551 75.590551 0 0 1 559.74609 555.55469 A 75.590551 75.590551 0 0 1 559.07617 555.84766 A 75.590551 75.590551 0 0 1 558.60547 556.04883 A 75.59055 75.59055 0 0 1 558.4043 556.13477 A 75.590551 75.590551 0 0 1 558.20508 556.2168 A 75.590551 75.590551 0 0 1 557.72852 556.41406 A 75.590551 75.590551 0 0 1 557.04883 556.6875 A 75.590551 75.590551 0 0 1 556.57422 556.875 A 75.59055 75.59055 0 0 1 556.51367 556.89844 A 75.59055 75.59055 0 0 1 555.89062 557.13672 A 75.59055 75.59055 0 0 1 555.20508 557.39258 A 75.59055 75.59055 0 0 1 554.71875 557.57031 A 75.590551 75.590551 0 0 1 554.51758 557.64258 A 75.59055 75.59055 0 0 1 554.3125 557.71484 A 75.590551 75.590551 0 0 1 554.25391 557.73633 A 75.590551 75.590551 0 0 1 553.63672 557.94922 A 75.59055 75.59055 0 0 1 553.62109 557.95508 A 75.590551 75.590551 0 0 1 553.58594 557.9668 A 75.590551 75.590551 0 0 1 552.92773 558.1875 A 75.59055 75.59055 0 0 1 552.57812 558.30273 A 75.590551 75.590551 0 0 1 552.44141 558.34766 A 75.59055 75.59055 0 0 1 551.91602 558.51562 A 75.590551 75.590551 0 0 1 551.74609 558.57031 A 75.59055 75.59055 0 0 1 551.53711 558.63477 A 75.590551 75.590551 0 0 1 551.04688 558.78516 A 75.59055 75.59055 0 0 1 550.83789 558.84766 A 75.590551 75.590551 0 0 1 550.3457 558.99414 A 75.59055 75.59055 0 0 1 550.13672 559.05469 A 75.590551 75.590551 0 0 1 550.00195 559.0918 A 75.590551 75.590551 0 0 1 549.43164 559.25391 A 75.590551 75.590551 0 0 1 548.74609 559.44141 A 75.59055 75.59055 0 0 1 548.72656 559.44727 A 75.590551 75.590551 0 0 1 548.23242 559.57812 A 75.59055 75.59055 0 0 1 548.01953 559.63281 A 75.590551 75.590551 0 0 1 547.52344 559.75977 A 75.59055 75.59055 0 0 1 547.31055 559.8125 A 75.590551 75.590551 0 0 1 546.69336 559.96484 A 75.59055 75.59055 0 0 1 546.60156 559.98633 A 75.590551 75.590551 0 0 1 546.10352 560.10156 A 75.59055 75.59055 0 0 1 545.88867 560.15039 A 75.590551 75.590551 0 0 1 545.86719 560.1543 A 75.590551 75.590551 0 0 1 545.17578 560.30859 A 75.590551 75.590551 0 0 1 544.67383 560.41602 A 75.59055 75.59055 0 0 1 544.46094 560.46094 A 75.590551 75.590551 0 0 1 544.3418 560.48438 A 75.590551 75.590551 0 0 1 543.74414 560.60547 A 75.590551 75.590551 0 0 1 543.24023 560.70312 A 75.59055 75.59055 0 0 1 543.1875 560.71289 A 75.59055 75.59055 0 0 1 542.54102 560.83203 A 75.590551 75.590551 0 0 1 542.52148 560.83594 A 75.59055 75.59055 0 0 1 542.30664 560.875 A 75.590551 75.590551 0 0 1 542.11719 560.9082 A 75.590551 75.590551 0 0 1 541.58594 560.99805 A 75.590551 75.590551 0 0 1 540.86328 561.11523 A 75.590551 75.590551 0 0 1 540.14062 561.22461 A 75.590551 75.590551 0 0 1 539.42773 561.32617 A 75.59055 75.59055 0 0 1 539.41797 561.32812 A 75.590551 75.590551 0 0 1 539.38867 561.33203 A 75.590551 75.590551 0 0 1 538.69336 561.42383 A 75.590551 75.590551 0 0 1 537.98047 561.51172 A 75.59055 75.59055 0 0 1 537.9668 561.51367 A 75.590551 75.590551 0 0 1 537.92773 561.51758 A 75.590551 75.590551 0 0 1 537.30859 561.58789 A 75.59055 75.59055 0 0 1 537.24023 561.5957 A 75.590551 75.590551 0 0 1 536.73047 561.64844 A 75.59055 75.59055 0 0 1 536.51367 561.66992 A 75.590551 75.590551 0 0 1 536.00391 561.71875 A 75.59055 75.59055 0 0 1 535.78516 561.73828 A 75.590551 75.590551 0 0 1 535.27539 561.78125 A 75.59055 75.59055 0 0 1 535.05664 561.79883 A 75.590551 75.590551 0 0 1 534.54688 561.83789 A 75.59055 75.59055 0 0 1 534.32812 561.85352 A 75.590551 75.590551 0 0 1 534.14062 561.86523 A 75.590551 75.590551 0 0 1 533.59766 561.89844 A 75.590551 75.590551 0 0 1 533.08594 561.92773 A 75.59055 75.59055 0 0 1 533.01367 561.93164 A 75.59055 75.59055 0 0 1 532.6543 561.94922 A 75.590551 75.590551 0 0 1 532.13672 561.9707 A 75.590551 75.590551 0 0 1 531.40625 561.99609 A 75.590551 75.590551 0 0 1 530.71289 562.01367 A 75.59055 75.59055 0 0 1 530.67578 562.01562 A 75.590551 75.590551 0 0 1 530.16406 562.02344 A 75.59055 75.59055 0 0 1 529.65234 562.0293 A 75.590551 75.590551 0 0 1 529.21484 562.03125 A 75.590551 75.590551 0 0 1 529.13477 562.03125 A 75.590551 75.590551 0 0 1 528.4043 562.02734 A 75.59055 75.59055 0 0 1 528.40234 562.02734 A 75.590551 75.590551 0 0 1 524.02148 561.85742 A 75.59055 75.59055 0 0 1 524.01953 561.85742 A 75.590551 75.590551 0 0 1 521.83594 561.67773 A 75.59055 75.59055 0 0 1 521.83398 561.67773 A 75.590551 75.590551 0 0 1 519.65625 561.43555 A 75.59055 75.59055 0 0 1 519.6543 561.43555 A 75.590551 75.590551 0 0 1 518.20703 561.23828 A 75.59055 75.59055 0 0 1 518.20508 561.23828 A 75.590551 75.590551 0 0 1 517.48438 561.12891 A 75.59055 75.59055 0 0 1 517.48242 561.12891 A 75.590551 75.590551 0 0 1 515.32227 560.75781 A 75.59055 75.59055 0 0 1 515.32031 560.75781 A 75.590551 75.590551 0 0 1 513.17188 560.32617 A 75.59055 75.59055 0 0 1 513.16992 560.32617 A 75.590551 75.590551 0 0 1 511.74609 560.00391 A 75.59055 75.59055 0 0 1 511.74414 560.00391 A 75.590551 75.590551 0 0 1 511.03516 559.83203 A 75.59055 75.59055 0 0 1 511.0332 559.83203 A 75.590551 75.590551 0 0 1 510.32617 559.6543 A 75.59055 75.59055 0 0 1 510.32422 559.6543 A 75.590551 75.590551 0 0 1 509.61914 559.46875 A 75.59055 75.59055 0 0 1 509.61719 559.46875 A 75.590551 75.590551 0 0 1 508.91406 559.27734 A 75.59055 75.59055 0 0 1 508.91211 559.27734 A 75.590551 75.590551 0 0 1 507.50781 558.87109 A 75.59055 75.59055 0 0 1 506.11133 558.43945 A 75.59055 75.59055 0 0 1 504.72266 557.98047 A 75.590551 75.590551 0 0 1 502.6582 557.24219 A 75.59055 75.59055 0 0 1 502.65625 557.24219 A 75.590551 75.590551 0 0 1 502.39844 557.14453 A 75.59055 75.59055 0 0 1 501.97266 556.98242 A 75.590551 75.590551 0 0 1 500.61523 556.44531 A 75.59055 75.59055 0 0 1 500.61328 556.44531 A 75.590551 75.590551 0 0 1 499.93945 556.16602 A 75.59055 75.59055 0 0 1 499.9375 556.16602 A 75.590551 75.590551 0 0 1 496.60352 554.67383 A 75.59055 75.59055 0 0 1 496.60156 554.67188 A 75.590551 75.590551 0 0 1 493.98828 553.36328 A 75.59055 75.59055 0 0 1 493.98633 553.36328 A 75.590551 75.590551 0 0 1 493.76367 553.24414 A 75.59055 75.59055 0 0 1 492.69922 552.67188 A 75.590551 75.590551 0 0 1 492.06055 552.31641 A 75.59055 75.59055 0 0 1 490.79297 551.58594 A 75.590551 75.590551 0 0 1 490.16602 551.21289 A 75.59055 75.59055 0 0 1 490.16406 551.21289 A 75.590551 75.590551 0 0 1 487.68945 549.65625 A 75.59055 75.59055 0 0 1 486.47461 548.84375 A 75.590551 75.590551 0 0 1 485.87305 548.42773 A 75.59055 75.59055 0 0 1 484.68164 547.58008 A 75.590551 75.590551 0 0 1 484.09375 547.14648 A 75.59055 75.59055 0 0 1 484.0918 547.14648 A 75.590551 75.590551 0 0 1 482.92773 546.26367 A 75.59055 75.59055 0 0 1 482.92578 546.26367 A 75.590551 75.590551 0 0 1 482.35156 545.81445 A 75.59055 75.59055 0 0 1 482.34961 545.81445 A 75.590551 75.590551 0 0 1 481.7793 545.35938 A 75.59055 75.59055 0 0 1 481.77734 545.35938 A 75.590551 75.590551 0 0 1 480.64844 544.43359 A 75.59055 75.59055 0 0 1 480.64648 544.43164 A 75.590551 75.590551 0 0 1 480.08984 543.96094 A 75.59055 75.59055 0 0 1 480.08789 543.96094 A 75.590551 75.590551 0 0 1 479.83203 543.74023 A 75.59055 75.59055 0 0 1 478.98633 543.00195 A 75.59055 75.59055 0 0 1 478.98438 543 A 75.590551 75.590551 0 0 1 478.44141 542.51367 A 75.59055 75.59055 0 0 1 476.83594 541.01953 A 75.59055 75.59055 0 0 1 475.78906 539.99805 A 75.590551 75.590551 0 0 1 474.76367 538.95703 A 75.59055 75.59055 0 0 1 474.76367 538.95508 A 75.590551 75.590551 0 0 1 473.26367 537.35742 A 75.59055 75.59055 0 0 1 473.26172 537.35547 A 75.590551 75.590551 0 0 1 473.21484 537.30273 A 75.59055 75.59055 0 0 1 472.77344 536.8125 A 75.590551 75.590551 0 0 1 471.80859 535.71484 A 75.59055 75.59055 0 0 1 471.80859 535.71289 A 75.590551 75.590551 0 0 1 471.33594 535.1582 A 75.59055 75.59055 0 0 1 471.33594 535.15625 A 75.590551 75.590551 0 0 1 470.4043 534.03125 A 75.59055 75.59055 0 0 1 470.4043 534.0293 A 75.590551 75.590551 0 0 1 469.94727 533.46094 A 75.59055 75.59055 0 0 1 469.94531 533.45898 A 75.590551 75.590551 0 0 1 469.49414 532.88477 A 75.590551 75.590551 0 0 1 468.60742 531.72266 A 75.590551 75.590551 0 0 1 468.17188 531.13672 A 75.59055 75.59055 0 0 1 468.17188 531.13477 A 75.590551 75.590551 0 0 1 467.74219 530.54492 A 75.59055 75.59055 0 0 1 467.74219 530.54297 A 75.590551 75.590551 0 0 1 467.31836 529.94922 A 75.59055 75.59055 0 0 1 467.31836 529.94727 A 75.590551 75.590551 0 0 1 465.68359 527.52539 A 75.59055 75.59055 0 0 1 465.68164 527.52344 A 75.590551 75.590551 0 0 1 465.28906 526.91016 A 75.59055 75.59055 0 0 1 465.28711 526.9082 A 75.590551 75.590551 0 0 1 464.90039 526.28906 A 75.59055 75.59055 0 0 1 464.51758 525.66602 A 75.590551 75.590551 0 0 1 464.14062 525.04102 A 75.59055 75.59055 0 0 1 464.14062 525.03906 A 75.590551 75.590551 0 0 1 463.77148 524.41016 A 75.59055 75.59055 0 0 1 463.77148 524.4082 A 75.590551 75.590551 0 0 1 463.04883 523.13867 A 75.59055 75.59055 0 0 1 463.04883 523.13672 A 75.590551 75.590551 0 0 1 462.69727 522.49805 A 75.59055 75.59055 0 0 1 462.69727 522.49609 A 75.590551 75.590551 0 0 1 462.35156 521.85352 A 75.59055 75.59055 0 0 1 462.35156 521.85156 A 75.590551 75.590551 0 0 1 461.03125 519.24414 A 75.59055 75.59055 0 0 1 461.03125 519.24219 A 75.590551 75.590551 0 0 1 460.7168 518.58398 A 75.59055 75.59055 0 0 1 460.7168 518.58203 A 75.590551 75.590551 0 0 1 460.41016 517.91992 A 75.590551 75.590551 0 0 1 459.9043 516.78906 A 75.59055 75.59055 0 0 1 459.81445 516.58398 A 75.590551 75.590551 0 0 1 459.52539 515.91406 A 75.59055 75.59055 0 0 1 459.52539 515.91211 A 75.590551 75.590551 0 0 1 458.4375 513.19922 A 75.59055 75.59055 0 0 1 458.4375 513.19727 A 75.590551 75.590551 0 0 1 457.69141 511.13672 A 75.59055 75.59055 0 0 1 457.69141 511.13477 A 75.590551 75.590551 0 0 1 457.45508 510.44531 A 75.59055 75.59055 0 0 1 457.45508 510.44336 A 75.590551 75.590551 0 0 1 456.78906 508.35547 A 75.59055 75.59055 0 0 1 456.78906 508.35352 A 75.590551 75.590551 0 0 1 456.58008 507.6543 A 75.59055 75.59055 0 0 1 456.58008 507.65234 A 75.590551 75.590551 0 0 1 455.99609 505.54102 A 75.59055 75.59055 0 0 1 455.99609 505.53906 A 75.590551 75.590551 0 0 1 455.64062 504.12305 A 75.59055 75.59055 0 0 1 455.64062 504.12109 A 75.590551 75.590551 0 0 1 454.73828 499.83008 A 75.59055 75.59055 0 0 1 454.73828 499.82812 A 75.59055 75.59055 0 0 1 454.49414 498.38867 A 75.59055 75.59055 0 0 1 454.49414 498.38672 A 75.590551 75.590551 0 0 1 454.38086 497.66602 A 75.59055 75.59055 0 0 1 454.38086 497.66406 A 75.590551 75.590551 0 0 1 454.27539 496.94336 A 75.59055 75.59055 0 0 1 454.27539 496.94141 A 75.590551 75.590551 0 0 1 454.17773 496.21875 A 75.59055 75.59055 0 0 1 454.17773 496.2168 A 75.59055 75.59055 0 0 1 453.92578 494.03906 A 75.590551 75.590551 0 0 1 453.85547 493.3125 A 75.59055 75.59055 0 0 1 453.85547 493.31055 A 75.590551 75.590551 0 0 1 453.79297 492.58398 A 75.59055 75.59055 0 0 1 453.79297 492.58203 A 75.59055 75.59055 0 0 1 453.64648 490.39453 A 75.590551 75.590551 0 0 1 453.55078 487.47266 A 75.59055 75.59055 0 0 1 453.55078 487.4707 A 75.590551 75.590551 0 0 1 453.54297 486.74219 A 75.59055 75.59055 0 0 1 453.54297 486.74023 A 75.590551 75.590551 0 0 1 453.54297 486.44141 A 75.590551 75.590551 0 0 1 453.54688 485.71094 A 75.59055 75.59055 0 0 1 453.54688 485.70898 A 75.590551 75.590551 0 0 1 453.7168 481.32812 A 75.59055 75.59055 0 0 1 453.7168 481.32617 A 75.590551 75.590551 0 0 1 453.76953 480.59766 A 75.59055 75.59055 0 0 1 453.89062 479.20312 A 75.590551 75.590551 0 0 1 453.89648 479.14258 A 75.59055 75.59055 0 0 1 453.89648 479.14062 A 75.590551 75.590551 0 0 1 453.9707 478.41406 A 75.59055 75.59055 0 0 1 454.23438 476.23633 A 75.59055 75.59055 0 0 1 454.5625 474.06836 A 75.590551 75.590551 0 0 1 454.95312 471.91016 A 75.59055 75.59055 0 0 1 455.24805 470.47852 A 75.590551 75.590551 0 0 1 455.57031 469.05273 A 75.59055 75.59055 0 0 1 455.57031 469.05078 A 75.590551 75.590551 0 0 1 456.10547 466.92578 A 75.59055 75.59055 0 0 1 456.10547 466.92383 A 75.590551 75.590551 0 0 1 456.1582 466.73242 A 75.59055 75.59055 0 0 1 456.70312 464.81445 A 75.59055 75.59055 0 0 1 457.13477 463.41797 A 75.59055 75.59055 0 0 1 457.59375 462.0293 A 75.59055 75.59055 0 0 1 458.33203 459.96484 A 75.59055 75.59055 0 0 1 458.85742 458.59961 A 75.59055 75.59055 0 0 1 459.4082 457.24609 A 75.59055 75.59055 0 0 1 459.98633 455.90234 A 75.590551 75.590551 0 0 1 460.90039 453.91016 A 75.59055 75.59055 0 0 1 460.90234 453.9082 A 75.59055 75.59055 0 0 1 461.54297 452.5957 A 75.59055 75.59055 0 0 1 462.21094 451.29492 A 75.59055 75.59055 0 0 1 463.98828 448.09961 A 75.59055 75.59055 0 0 1 464.74219 446.84766 A 75.59055 75.59055 0 0 1 465.51953 445.60938 A 75.590551 75.590551 0 0 1 465.91797 444.99609 A 75.59055 75.59055 0 0 1 467.14648 443.17969 A 75.59055 75.59055 0 0 1 468.24414 441.64844 A 75.590551 75.590551 0 0 1 468.42773 441.40039 A 75.59055 75.59055 0 0 1 468.42773 441.39844 A 75.590551 75.590551 0 0 1 468.61523 441.14844 A 75.59055 75.59055 0 0 1 469.31055 440.23438 A 75.590551 75.590551 0 0 1 469.75977 439.6582 A 75.59055 75.59055 0 0 1 469.75977 439.65625 A 75.590551 75.590551 0 0 1 470.21484 439.08594 A 75.59055 75.59055 0 0 1 470.21484 439.08398 A 75.590551 75.590551 0 0 1 470.67578 438.51758 A 75.59055 75.59055 0 0 1 473.06055 435.74805 A 75.59055 75.59055 0 0 1 475.57812 433.0957 A 75.59055 75.59055 0 0 1 476.0957 432.58008 A 75.590551 75.590551 0 0 1 476.61719 432.07031 A 75.59055 75.59055 0 0 1 479.30859 429.5957 A 75.590551 75.590551 0 0 1 479.85938 429.11523 A 75.59055 75.59055 0 0 1 480.97852 428.17383 A 75.590551 75.590551 0 0 1 481.54297 427.71094 A 75.59055 75.59055 0 0 1 482.68945 426.80078 A 75.590551 75.590551 0 0 1 483.26758 426.35547 A 75.59055 75.59055 0 0 1 483.85156 425.91406 A 75.590551 75.590551 0 0 1 484.4375 425.47852 A 75.59055 75.59055 0 0 1 486.22656 424.20703 A 75.590551 75.590551 0 0 1 486.83008 423.79492 A 75.59055 75.59055 0 0 1 488.04883 422.99023 A 75.59055 75.59055 0 0 1 489.28516 422.20703 A 75.590551 75.590551 0 0 1 490.5332 421.44727 A 75.59055 75.59055 0 0 1 494.36914 419.31836 A 75.59055 75.59055 0 0 1 495.67383 418.6582 A 75.590551 75.590551 0 0 1 496.33008 418.33789 A 75.59055 75.59055 0 0 1 501.01367 416.27539 A 75.590551 75.590551 0 0 1 502.375 415.74414 A 75.59055 75.59055 0 0 1 505.82617 414.5332 A 75.59055 75.59055 0 0 1 507.21875 414.0957 A 75.59055 75.59055 0 0 1 509.32812 413.49023 A 75.590551 75.590551 0 0 1 510.0332 413.30273 A 75.59055 75.59055 0 0 1 514.30859 412.31836 A 75.590551 75.590551 0 0 1 515.02539 412.17773 A 75.59055 75.59055 0 0 1 515.74609 412.04492 A 75.59055 75.59055 0 0 1 517.18555 411.80078 A 75.59055 75.59055 0 0 1 517.91016 411.6875 A 75.59055 75.59055 0 0 1 519.35547 411.48438 A 75.59055 75.59055 0 0 1 519.35742 411.48438 A 75.59055 75.59055 0 0 1 521.53516 411.23242 A 75.59055 75.59055 0 0 1 521.53711 411.23242 A 75.59055 75.59055 0 0 1 522.99023 411.09961 A 75.59055 75.59055 0 0 1 522.99219 411.09961 A 75.59055 75.59055 0 0 1 525.17969 410.95312 A 75.59055 75.59055 0 0 1 525.18164 410.95312 A 75.59055 75.59055 0 0 1 526.64062 410.89062 A 75.59055 75.59055 0 0 1 528.10352 410.85742 A 75.59055 75.59055 0 0 1 529.13477 410.84961 A 75.590551 75.590551 0 0 1 529.86523 410.85352 A 75.59055 75.59055 0 0 1 532.05664 410.90625 A 75.59055 75.59055 0 0 1 532.05859 410.90625 A 75.59055 75.59055 0 0 1 534.24805 411.02344 A 75.590551 75.590551 0 0 1 534.97656 411.07617 A 75.59055 75.59055 0 0 1 534.97852 411.07617 A 75.590551 75.590551 0 0 1 535.70508 411.13672 A 75.59055 75.59055 0 0 1 535.70703 411.13672 A 75.590551 75.590551 0 0 1 537.16016 411.27734 A 75.59055 75.59055 0 0 1 537.16211 411.27734 A 75.59055 75.59055 0 0 1 538.61328 411.44727 A 75.59055 75.59055 0 0 1 540.0625 411.64453 A 75.590551 75.590551 0 0 1 541.50586 411.86914 A 75.59055 75.59055 0 0 1 541.50781 411.86914 A 75.590551 75.590551 0 0 1 542.22656 411.99219 A 75.59055 75.59055 0 0 1 542.22852 411.99219 A 75.590551 75.590551 0 0 1 543.66406 412.25977 A 75.59055 75.59055 0 0 1 543.66602 412.25977 A 75.590551 75.590551 0 0 1 544.38086 412.4043 A 75.59055 75.59055 0 0 1 544.38281 412.4043 A 75.590551 75.590551 0 0 1 545.81055 412.71289 A 75.59055 75.59055 0 0 1 545.8125 412.71289 A 75.590551 75.590551 0 0 1 547.23438 413.04883 A 75.59055 75.59055 0 0 1 549.35547 413.60547 A 75.59055 75.59055 0 0 1 550.75977 414.00977 A 75.59055 75.59055 0 0 1 550.76172 414.00977 A 75.590551 75.590551 0 0 1 551.45898 414.22266 A 75.59055 75.59055 0 0 1 551.46094 414.22266 A 75.590551 75.590551 0 0 1 553.54492 414.90039 A 75.59055 75.59055 0 0 1 553.54688 414.90039 A 75.59055 75.59055 0 0 1 555.61133 415.63867 A 75.590551 75.590551 0 0 1 556.97461 416.16406 A 75.59055 75.59055 0 0 1 556.97656 416.16406 A 75.59055 75.59055 0 0 1 559.00195 417.00195 A 75.59055 75.59055 0 0 1 559.00391 417.00195 A 75.590551 75.590551 0 0 1 559.67188 417.29297 A 75.59055 75.59055 0 0 1 559.67383 417.29297 A 75.590551 75.590551 0 0 1 560.33984 417.5918 A 75.59055 75.59055 0 0 1 560.3418 417.5918 A 75.59055 75.59055 0 0 1 561.66602 418.20898 A 75.59055 75.59055 0 0 1 563.63086 419.18164 A 75.59055 75.59055 0 0 1 563.63281 419.18164 A 75.590551 75.590551 0 0 1 564.92578 419.86133 A 75.59055 75.59055 0 0 1 564.92773 419.86133 A 75.590551 75.590551 0 0 1 566.20703 420.56641 A 75.59055 75.59055 0 0 1 566.20898 420.56641 A 75.590551 75.590551 0 0 1 566.8418 420.92773 A 75.59055 75.59055 0 0 1 566.84375 420.92773 A 75.590551 75.590551 0 0 1 567.47461 421.29492 A 75.59055 75.59055 0 0 1 568.72656 422.04883 A 75.59055 75.59055 0 0 1 568.72852 422.04883 A 75.590551 75.590551 0 0 1 569.34766 422.43555 A 75.59055 75.59055 0 0 1 569.34961 422.43555 A 75.59055 75.59055 0 0 1 570.57812 423.22461 A 75.59055 75.59055 0 0 1 570.58008 423.22461 A 75.590551 75.590551 0 0 1 571.1875 423.62891 A 75.59055 75.59055 0 0 1 571.18945 423.62891 A 75.59055 75.59055 0 0 1 572.39453 424.45312 A 75.59055 75.59055 0 0 1 572.39648 424.45312 A 75.590551 75.590551 0 0 1 572.99219 424.875 A 75.59055 75.59055 0 0 1 572.99414 424.875 A 75.590551 75.590551 0 0 1 573.58594 425.30273 A 75.59055 75.59055 0 0 1 573.58789 425.30273 A 75.590551 75.590551 0 0 1 574.75977 426.17383 A 75.59055 75.59055 0 0 1 574.76172 426.17383 A 75.590551 75.590551 0 0 1 575.3418 426.61719 A 75.59055 75.59055 0 0 1 577.62109 428.44922 A 75.59055 75.59055 0 0 1 578.73242 429.39844 A 75.59055 75.59055 0 0 1 578.73438 429.39844 A 75.590551 75.590551 0 0 1 579.2832 429.88086 A 75.59055 75.59055 0 0 1 580.36719 430.86133 A 75.590551 75.590551 0 0 1 580.90234 431.35938 A 75.59055 75.59055 0 0 1 581.95898 432.37109 A 75.590551 75.590551 0 0 1 582.99414 433.40234 A 75.59055 75.59055 0 0 1 584.00977 434.45508 A 75.59055 75.59055 0 0 1 585.00586 435.52539 A 75.59055 75.59055 0 0 1 586.45898 437.16797 A 75.59055 75.59055 0 0 1 588.32227 439.42188 A 75.590551 75.590551 0 0 1 589.2207 440.57617 A 75.59055 75.59055 0 0 1 590.0957 441.74609 A 75.590551 75.590551 0 0 1 591.36719 443.5332 A 75.59055 75.59055 0 0 1 591.7793 444.13672 A 75.590551 75.590551 0 0 1 593.36914 446.5918 A 75.59055 75.59055 0 0 1 594.12695 447.8418 A 75.59055 75.59055 0 0 1 594.47656 448.43555 L 664.01758 418.16211 A 151.1811 151.1811 0 0 0 529.13477 335.25977 z "
       transform="scale(0.26458333)" />
    <path
       id="rect861"
       style="opacity:1;fill:#000000;fill-opacity:1;stroke-width:1.09927"
       d="M 362.1543 143.46289 L 196.62891 547.29883 L 107.0332 476.04688 L 59.4375 534.78125 L 224.77734 666.27148 L 226.36328 664.31445 L 269.625 568.52344 L 432.05469 172.23633 L 362.1543 143.46289 z "
       transform="scale(0.26458333)" />
  </g>
</svg>
