<?xml version="1.0" encoding="UTF-8" standalone="no"?>
<svg
   xmlns:dc="http://purl.org/dc/elements/1.1/"
   xmlns:cc="http://creativecommons.org/ns#"
   xmlns:rdf="http://www.w3.org/1999/02/22-rdf-syntax-ns#"
   xmlns:svg="http://www.w3.org/2000/svg"
   xmlns="http://www.w3.org/2000/svg"
   xmlns:sodipodi="http://sodipodi.sourceforge.net/DTD/sodipodi-0.dtd"
   xmlns:inkscape="http://www.inkscape.org/namespaces/inkscape"
   width="200mm"
   height="200mm"
   viewBox="0 0 200 200"
   version="1.1"
   id="svg8"
   inkscape:version="1.0.2 (e86c8708, 2021-01-15)"
   sodipodi:docname="logo copy.svg"
   inkscape:export-filename="/Users/joshcena/Desktop/Random images/avatar.png"
   inkscape:export-xdpi="63.5"
   inkscape:export-ydpi="63.5">
  <defs
     id="defs2" />
  <sodipodi:namedview
     id="base"
     pagecolor="#ffffff"
     bordercolor="#666666"
     borderopacity="1.0"
     inkscape:pageopacity="0.0"
     inkscape:pageshadow="2"
     inkscape:zoom="0.82715308"
     inkscape:cx="279.37925"
     inkscape:cy="381.91914"
     inkscape:document-units="mm"
     inkscape:current-layer="g935"
     inkscape:document-rotation="0"
     showgrid="false"
     inkscape:window-width="1440"
     inkscape:window-height="855"
     inkscape:window-x="0"
     inkscape:window-y="23"
     inkscape:window-maximized="0" />
  <metadata
     id="metadata5">
    <rdf:RDF>
      <cc:Work
         rdf:about="">
        <dc:format>image/svg+xml</dc:format>
        <dc:type
           rdf:resource="http://purl.org/dc/dcmitype/StillImage" />
        <dc:title />
      </cc:Work>
    </rdf:RDF>
  </metadata>
  <rect
     style="fill:#ffffff;fill-opacity:1;stroke:#000000;stroke-width:0;stroke-linejoin:round;stroke-miterlimit:4;stroke-dasharray:none;stroke-opacity:1;paint-order:stroke fill markers"
     id="rect949"
     width="200"
     height="200"
     x="0"
     y="0" />
  <g
     inkscape:groupmode="layer"
     id="layer3"
     inkscape:label="Layer 2">
    <rect
       style="fill:#ffffff;fill-opacity:1;stroke-width:0.251463;opacity:0"
       id="rect854"
       width="200"
       height="200"
       x="0"
       y="0" />
  </g>
  <g
     inkscape:groupmode="layer"
     id="layer2"
     inkscape:label="Layer 3" />
  <g
     inkscape:label="Layer 1"
     inkscape:groupmode="layer"
     id="layer1">
    <g
       id="g947"
       transform="matrix(0.81269398,0,0,0.81269398,21.899563,26.034271)">
      <rect
         style="fill:#000000;fill-opacity:1;stroke-width:0.392631"
         id="rect833"
         width="150"
         height="20"
         x="25"
         y="33.983944" />
      <path
         id="path839"
         style="fill:#39cac4;fill-opacity:1;stroke-width:1.12104"
         d="M 529.13477,335.25977 A 151.1811,151.1811 0 0 0 377.95312,486.44141 151.1811,151.1811 0 0 0 529.13477,637.62109 151.1811,151.1811 0 0 0 662.23438,558.13086 l -70.82227,-28.84961 a 75.590551,75.590551 0 0 1 -0.41797,0.59961 75.590551,75.590551 0 0 1 -0.29492,0.41992 75.59055,75.59055 0 0 1 -0.12695,0.17774 75.590551,75.590551 0 0 1 -0.30079,0.41406 75.59055,75.59055 0 0 1 -0.1289,0.17773 75.590551,75.590551 0 0 1 -0.30274,0.41211 75.59055,75.59055 0 0 1 -0.13086,0.17578 75.590551,75.590551 0 0 1 -0.30859,0.41016 75.59055,75.59055 0 0 1 -0.13281,0.17383 75.590551,75.590551 0 0 1 -0.006,0.008 75.590551,75.590551 0 0 1 -0.43945,0.57031 75.590551,75.590551 0 0 1 -0.45118,0.57617 75.590551,75.590551 0 0 1 -0.45703,0.57032 75.590551,75.590551 0 0 1 -0.46289,0.5664 75.590551,75.590551 0 0 1 -0.32617,0.39453 75.59055,75.59055 0 0 1 -0.14062,0.16797 75.590551,75.590551 0 0 1 -0.33008,0.39063 75.59055,75.59055 0 0 1 -0.14258,0.16601 75.590551,75.590551 0 0 1 -0.084,0.0977 75.590551,75.590551 0 0 1 -0.39648,0.45508 75.590551,75.590551 0 0 1 -0.33789,0.38476 75.59055,75.59055 0 0 1 -0.0215,0.0234 75.59055,75.59055 0 0 1 -0.28711,0.32227 75.590551,75.590551 0 0 1 -0.31641,0.34961 75.59055,75.59055 0 0 1 -0.01,0.0117 75.590551,75.590551 0 0 1 -0.3457,0.37695 75.59055,75.59055 0 0 1 -0.14844,0.16015 75.590551,75.590551 0 0 1 -0.34961,0.375 75.59055,75.59055 0 0 1 -0.15039,0.16016 75.590551,75.590551 0 0 1 -0.084,0.0879 75.590551,75.590551 0 0 1 -0.41992,0.43945 75.590551,75.590551 0 0 1 -0.35743,0.36914 75.59055,75.59055 0 0 1 -0.0391,0.041 75.59055,75.59055 0 0 1 -0.39844,0.40039 75.590551,75.590551 0 0 1 -0.0762,0.0781 75.59055,75.59055 0 0 1 -0.15429,0.15429 75.590551,75.590551 0 0 1 -0.36328,0.36133 75.59055,75.59055 0 0 1 -0.041,0.041 75.59055,75.59055 0 0 1 -0.4043,0.39453 75.590551,75.590551 0 0 1 -0.0781,0.0742 75.59055,75.59055 0 0 1 -0.15821,0.15234 75.590551,75.590551 0 0 1 -0.37109,0.35352 75.59055,75.59055 0 0 1 -0.0156,0.0156 75.59055,75.59055 0 0 1 -0.43164,0.40235 75.590551,75.590551 0 0 1 -0.0859,0.082 75.59055,75.59055 0 0 1 -0.16016,0.14843 75.590551,75.590551 0 0 1 -0.0742,0.0664 75.590551,75.590551 0 0 1 -0.45703,0.41992 75.59055,75.59055 0 0 1 -0.008,0.008 75.590551,75.590551 0 0 1 -0.0176,0.0156 75.590551,75.590551 0 0 1 -0.52734,0.47266 75.590551,75.590551 0 0 1 -0.54883,0.48242 75.590551,75.590551 0 0 1 -0.38672,0.33593 75.59055,75.59055 0 0 1 -0.16602,0.14258 75.590551,75.590551 0 0 1 -0.39062,0.33203 75.59055,75.59055 0 0 1 -0.16797,0.14063 75.590551,75.590551 0 0 1 -0.0254,0.0215 75.590551,75.590551 0 0 1 -0.53711,0.44532 75.590551,75.590551 0 0 1 -0.39648,0.32422 75.59055,75.59055 0 0 1 -0.16993,0.13671 75.590551,75.590551 0 0 1 -0.0898,0.0703 75.590551,75.590551 0 0 1 -0.48242,0.38476 75.590551,75.590551 0 0 1 -0.40235,0.31641 75.59055,75.59055 0 0 1 -0.17382,0.13476 75.590551,75.590551 0 0 1 -0.40625,0.3125 75.59055,75.59055 0 0 1 -0.17383,0.13282 75.590551,75.590551 0 0 1 -0.4082,0.30664 75.59055,75.59055 0 0 1 -0.17579,0.13086 75.590551,75.590551 0 0 1 -0.10937,0.0801 75.590551,75.590551 0 0 1 -0.48047,0.35352 75.590551,75.590551 0 0 1 -0.41406,0.30078 75.59055,75.59055 0 0 1 -0.17774,0.12695 75.590551,75.590551 0 0 1 -0.0898,0.0625 75.590551,75.590551 0 0 1 -0.50781,0.35938 75.590551,75.590551 0 0 1 -0.60156,0.41602 75.590551,75.590551 0 0 1 -0.60547,0.41015 75.590551,75.590551 0 0 1 -0.42579,0.28516 75.59055,75.59055 0 0 1 -0.0273,0.0176 75.59055,75.59055 0 0 1 -0.55859,0.36523 75.590551,75.590551 0 0 1 -0.0254,0.0176 75.59055,75.59055 0 0 1 -0.1836,0.11914 75.590551,75.590551 0 0 1 -0.43164,0.27539 75.59055,75.59055 0 0 1 -0.18554,0.11719 75.590551,75.590551 0 0 1 -0.4336,0.27148 75.59055,75.59055 0 0 1 -0.1875,0.11524 75.590551,75.590551 0 0 1 -0.43554,0.26562 75.59055,75.59055 0 0 1 -0.1875,0.11328 75.590551,75.590551 0 0 1 -0.10938,0.0664 75.590551,75.590551 0 0 1 -0.51953,0.30859 75.590551,75.590551 0 0 1 -0.44141,0.25977 75.59055,75.59055 0 0 1 -0.18945,0.10937 75.590551,75.590551 0 0 1 -0.44336,0.25391 75.59055,75.59055 0 0 1 -0.19141,0.10742 75.590551,75.590551 0 0 1 -0.59961,0.33594 75.59055,75.59055 0 0 1 -0.0391,0.0215 75.590551,75.590551 0 0 1 -0.0918,0.0488 75.590551,75.590551 0 0 1 -0.55079,0.30078 75.590551,75.590551 0 0 1 -0.59765,0.31836 75.59055,75.59055 0 0 1 -0.0469,0.0254 75.590551,75.590551 0 0 1 -0.45312,0.23633 75.59055,75.59055 0 0 1 -0.0234,0.0117 75.59055,75.59055 0 0 1 -0.43359,0.22266 75.590551,75.590551 0 0 1 -0.19532,0.0996 75.59055,75.59055 0 0 1 -0.19531,0.0977 75.590551,75.590551 0 0 1 -0.45703,0.22852 75.59055,75.59055 0 0 1 -0.0566,0.0273 75.59055,75.59055 0 0 1 -0.60156,0.29297 75.59055,75.59055 0 0 1 -0.43555,0.20703 75.590551,75.590551 0 0 1 -0.42383,0.19922 75.590551,75.590551 0 0 1 -0.66406,0.30664 75.590551,75.590551 0 0 1 -0.66602,0.29883 75.590551,75.590551 0 0 1 -0.66992,0.29297 75.590551,75.590551 0 0 1 -0.4707,0.20117 75.59055,75.59055 0 0 1 -0.20117,0.0859 75.590551,75.590551 0 0 1 -0.19922,0.082 75.590551,75.590551 0 0 1 -0.47656,0.19726 75.590551,75.590551 0 0 1 -0.67969,0.27344 75.590551,75.590551 0 0 1 -0.47461,0.1875 75.59055,75.59055 0 0 1 -0.0605,0.0234 75.59055,75.59055 0 0 1 -0.62305,0.23828 75.59055,75.59055 0 0 1 -0.68554,0.25586 75.59055,75.59055 0 0 1 -0.48633,0.17773 75.590551,75.590551 0 0 1 -0.20117,0.0723 75.59055,75.59055 0 0 1 -0.20508,0.0723 75.590551,75.590551 0 0 1 -0.0586,0.0215 75.590551,75.590551 0 0 1 -0.61719,0.21289 75.59055,75.59055 0 0 1 -0.0156,0.006 75.590551,75.590551 0 0 1 -0.0351,0.0117 75.590551,75.590551 0 0 1 -0.65821,0.2207 75.59055,75.59055 0 0 1 -0.34961,0.11523 75.590551,75.590551 0 0 1 -0.13671,0.0449 75.59055,75.59055 0 0 1 -0.52539,0.16796 75.590551,75.590551 0 0 1 -0.16993,0.0547 75.59055,75.59055 0 0 1 -0.20898,0.0645 75.590551,75.590551 0 0 1 -0.49023,0.15039 75.59055,75.59055 0 0 1 -0.20899,0.0625 75.590551,75.590551 0 0 1 -0.49219,0.14648 75.59055,75.59055 0 0 1 -0.20898,0.0606 75.590551,75.590551 0 0 1 -0.13477,0.0371 75.590551,75.590551 0 0 1 -0.57031,0.16211 75.590551,75.590551 0 0 1 -0.68555,0.1875 75.59055,75.59055 0 0 1 -0.0195,0.006 75.590551,75.590551 0 0 1 -0.49414,0.13085 75.59055,75.59055 0 0 1 -0.21289,0.0547 75.590551,75.590551 0 0 1 -0.49609,0.12696 75.59055,75.59055 0 0 1 -0.21289,0.0527 75.590551,75.590551 0 0 1 -0.61719,0.15234 75.59055,75.59055 0 0 1 -0.0918,0.0215 75.590551,75.590551 0 0 1 -0.49804,0.11523 75.59055,75.59055 0 0 1 -0.21485,0.0488 75.590551,75.590551 0 0 1 -0.0215,0.004 75.590551,75.590551 0 0 1 -0.69141,0.15429 75.590551,75.590551 0 0 1 -0.50195,0.10743 75.59055,75.59055 0 0 1 -0.21289,0.0449 75.590551,75.590551 0 0 1 -0.11914,0.0234 75.590551,75.590551 0 0 1 -0.59766,0.12109 75.590551,75.590551 0 0 1 -0.50391,0.0977 75.59055,75.59055 0 0 1 -0.0527,0.01 75.59055,75.59055 0 0 1 -0.64648,0.11914 75.590551,75.590551 0 0 1 -0.0195,0.004 75.59055,75.59055 0 0 1 -0.21484,0.0391 75.590551,75.590551 0 0 1 -0.18945,0.0332 75.590551,75.590551 0 0 1 -0.53125,0.0899 75.590551,75.590551 0 0 1 -0.72266,0.11718 75.590551,75.590551 0 0 1 -0.72266,0.10938 75.590551,75.590551 0 0 1 -0.71289,0.10156 75.59055,75.59055 0 0 1 -0.01,0.002 75.590551,75.590551 0 0 1 -0.0293,0.004 75.590551,75.590551 0 0 1 -0.69531,0.0918 75.590551,75.590551 0 0 1 -0.71289,0.0879 75.59055,75.59055 0 0 1 -0.0137,0.002 75.590551,75.590551 0 0 1 -0.0391,0.004 75.590551,75.590551 0 0 1 -0.61914,0.0703 75.59055,75.59055 0 0 1 -0.0684,0.008 75.590551,75.590551 0 0 1 -0.50976,0.0527 75.59055,75.59055 0 0 1 -0.2168,0.0215 75.590551,75.590551 0 0 1 -0.50976,0.0488 75.59055,75.59055 0 0 1 -0.21875,0.0195 75.590551,75.590551 0 0 1 -0.50977,0.043 75.59055,75.59055 0 0 1 -0.21875,0.0176 75.590551,75.590551 0 0 1 -0.50976,0.0391 75.59055,75.59055 0 0 1 -0.21876,0.0156 75.590551,75.590551 0 0 1 -0.1875,0.0117 75.590551,75.590551 0 0 1 -0.54296,0.0332 75.590551,75.590551 0 0 1 -0.51172,0.0293 75.59055,75.59055 0 0 1 -0.0723,0.004 75.59055,75.59055 0 0 1 -0.35937,0.0176 75.590551,75.590551 0 0 1 -0.51758,0.0215 75.590551,75.590551 0 0 1 -0.73047,0.0254 75.590551,75.590551 0 0 1 -0.69336,0.0176 75.59055,75.59055 0 0 1 -0.0371,0.002 75.590551,75.590551 0 0 1 -0.51172,0.008 75.59055,75.59055 0 0 1 -0.51172,0.006 75.590551,75.590551 0 0 1 -0.4375,0.002 75.590551,75.590551 0 0 1 -0.0801,0 75.590551,75.590551 0 0 1 -0.73047,-0.004 75.59055,75.59055 0 0 1 -0.002,0 75.590551,75.590551 0 0 1 -4.38086,-0.16992 75.59055,75.59055 0 0 1 -0.002,0 75.590551,75.590551 0 0 1 -2.18359,-0.17969 75.59055,75.59055 0 0 1 -0.002,0 75.590551,75.590551 0 0 1 -2.17773,-0.24218 75.59055,75.59055 0 0 1 -0.002,0 75.590551,75.590551 0 0 1 -1.44727,-0.19727 75.59055,75.59055 0 0 1 -0.002,0 75.590551,75.590551 0 0 1 -0.7207,-0.10937 75.59055,75.59055 0 0 1 -0.002,0 75.590551,75.590551 0 0 1 -2.16015,-0.3711 75.59055,75.59055 0 0 1 -0.002,0 75.590551,75.590551 0 0 1 -2.14843,-0.43164 75.59055,75.59055 0 0 1 -0.002,0 75.590551,75.590551 0 0 1 -1.42383,-0.32226 75.59055,75.59055 0 0 1 -0.002,0 75.590551,75.590551 0 0 1 -0.70898,-0.17188 75.59055,75.59055 0 0 1 -0.002,0 75.590551,75.590551 0 0 1 -0.70703,-0.17773 75.59055,75.59055 0 0 1 -0.002,0 75.590551,75.590551 0 0 1 -0.70508,-0.18555 75.59055,75.59055 0 0 1 -0.002,0 75.590551,75.590551 0 0 1 -0.70313,-0.19141 75.59055,75.59055 0 0 1 -0.002,0 75.590551,75.590551 0 0 1 -1.4043,-0.40625 75.59055,75.59055 0 0 1 -1.39648,-0.43164 75.59055,75.59055 0 0 1 -1.38867,-0.45898 75.590551,75.590551 0 0 1 -2.06446,-0.73828 75.59055,75.59055 0 0 1 -0.002,0 75.590551,75.590551 0 0 1 -0.25781,-0.0977 75.59055,75.59055 0 0 1 -0.42578,-0.16211 75.590551,75.590551 0 0 1 -1.35743,-0.53711 75.59055,75.59055 0 0 1 -0.002,0 75.590551,75.590551 0 0 1 -0.67383,-0.27929 75.59055,75.59055 0 0 1 -0.002,0 75.590551,75.590551 0 0 1 -3.33398,-1.49219 75.59055,75.59055 0 0 1 -0.002,-0.002 75.590551,75.590551 0 0 1 -2.61328,-1.3086 75.59055,75.59055 0 0 1 -0.002,0 75.590551,75.590551 0 0 1 -0.22266,-0.11914 75.59055,75.59055 0 0 1 -1.06445,-0.57226 75.590551,75.590551 0 0 1 -0.63867,-0.35547 75.59055,75.59055 0 0 1 -1.26758,-0.73047 75.590551,75.590551 0 0 1 -0.62695,-0.37305 75.59055,75.59055 0 0 1 -0.002,0 75.590551,75.590551 0 0 1 -2.47461,-1.55664 75.59055,75.59055 0 0 1 -1.21484,-0.8125 75.590551,75.590551 0 0 1 -0.60156,-0.41602 75.59055,75.59055 0 0 1 -1.19141,-0.84765 75.590551,75.590551 0 0 1 -0.58789,-0.4336 75.59055,75.59055 0 0 1 -0.002,0 75.590551,75.590551 0 0 1 -1.16407,-0.88281 75.59055,75.59055 0 0 1 -0.002,0 75.590551,75.590551 0 0 1 -0.57422,-0.44922 75.59055,75.59055 0 0 1 -0.002,0 75.590551,75.590551 0 0 1 -0.57031,-0.45507 75.59055,75.59055 0 0 1 -0.002,0 75.590551,75.590551 0 0 1 -1.1289,-0.92579 75.59055,75.59055 0 0 1 -0.002,-0.002 75.590551,75.590551 0 0 1 -0.55664,-0.4707 75.59055,75.59055 0 0 1 -0.002,0 75.590551,75.590551 0 0 1 -0.25586,-0.22071 75.59055,75.59055 0 0 1 -0.8457,-0.73828 75.59055,75.59055 0 0 1 -0.002,-0.002 75.590551,75.590551 0 0 1 -0.54297,-0.48633 75.59055,75.59055 0 0 1 -1.60547,-1.49414 75.59055,75.59055 0 0 1 -1.04688,-1.02148 75.590551,75.590551 0 0 1 -1.02539,-1.04102 75.59055,75.59055 0 0 1 0,-0.002 75.590551,75.590551 0 0 1 -1.5,-1.59766 75.59055,75.59055 0 0 1 -0.002,-0.002 75.590551,75.590551 0 0 1 -0.0469,-0.0527 75.59055,75.59055 0 0 1 -0.4414,-0.49023 75.590551,75.590551 0 0 1 -0.96485,-1.09766 75.59055,75.59055 0 0 1 0,-0.002 75.590551,75.590551 0 0 1 -0.47265,-0.55469 75.59055,75.59055 0 0 1 0,-0.002 75.590551,75.590551 0 0 1 -0.93164,-1.125 75.59055,75.59055 0 0 1 0,-0.002 75.590551,75.590551 0 0 1 -0.45703,-0.56836 75.59055,75.59055 0 0 1 -0.002,-0.002 75.590551,75.590551 0 0 1 -0.45117,-0.57421 75.590551,75.590551 0 0 1 -0.88672,-1.16211 75.590551,75.590551 0 0 1 -0.43554,-0.58594 75.59055,75.59055 0 0 1 0,-0.002 75.590551,75.590551 0 0 1 -0.42969,-0.58985 75.59055,75.59055 0 0 1 0,-0.002 75.590551,75.590551 0 0 1 -0.42383,-0.59375 75.59055,75.59055 0 0 1 0,-0.002 75.590551,75.590551 0 0 1 -1.63477,-2.42188 75.59055,75.59055 0 0 1 -0.002,-0.002 75.590551,75.590551 0 0 1 -0.39258,-0.61328 75.59055,75.59055 0 0 1 -0.002,-0.002 75.590551,75.590551 0 0 1 -0.38672,-0.61914 75.59055,75.59055 0 0 1 -0.38281,-0.62304 75.590551,75.590551 0 0 1 -0.37696,-0.625 75.59055,75.59055 0 0 1 0,-0.002 75.590551,75.590551 0 0 1 -0.36914,-0.6289 75.59055,75.59055 0 0 1 0,-0.002 75.590551,75.590551 0 0 1 -0.72265,-1.26953 75.59055,75.59055 0 0 1 0,-0.002 75.590551,75.590551 0 0 1 -0.35156,-0.63867 75.59055,75.59055 0 0 1 0,-0.002 75.590551,75.590551 0 0 1 -0.34571,-0.64257 75.59055,75.59055 0 0 1 0,-0.002 75.590551,75.590551 0 0 1 -1.32031,-2.60742 75.59055,75.59055 0 0 1 0,-0.002 75.590551,75.590551 0 0 1 -0.31445,-0.65821 75.59055,75.59055 0 0 1 0,-0.002 75.590551,75.590551 0 0 1 -0.30664,-0.66211 75.590551,75.590551 0 0 1 -0.50586,-1.13086 75.59055,75.59055 0 0 1 -0.0898,-0.20508 75.590551,75.590551 0 0 1 -0.28906,-0.66992 75.59055,75.59055 0 0 1 0,-0.002 75.590551,75.590551 0 0 1 -1.08789,-2.71289 75.59055,75.59055 0 0 1 0,-0.002 75.590551,75.590551 0 0 1 -0.74609,-2.06055 75.59055,75.59055 0 0 1 0,-0.002 75.590551,75.590551 0 0 1 -0.23633,-0.68946 75.59055,75.59055 0 0 1 0,-0.002 75.590551,75.590551 0 0 1 -0.66602,-2.08789 75.59055,75.59055 0 0 1 0,-0.002 75.590551,75.590551 0 0 1 -0.20898,-0.69922 75.59055,75.59055 0 0 1 0,-0.002 75.590551,75.590551 0 0 1 -0.58399,-2.11132 75.59055,75.59055 0 0 1 0,-0.002 75.590551,75.590551 0 0 1 -0.35547,-1.41601 75.59055,75.59055 0 0 1 0,-0.002 75.590551,75.590551 0 0 1 -0.90234,-4.29101 75.59055,75.59055 0 0 1 0,-0.002 75.59055,75.59055 0 0 1 -0.24414,-1.43945 75.59055,75.59055 0 0 1 0,-0.002 75.590551,75.590551 0 0 1 -0.11328,-0.7207 75.59055,75.59055 0 0 1 0,-0.002 75.590551,75.590551 0 0 1 -0.10547,-0.7207 75.59055,75.59055 0 0 1 0,-0.002 75.590551,75.590551 0 0 1 -0.0977,-0.72266 75.59055,75.59055 0 0 1 0,-0.002 75.59055,75.59055 0 0 1 -0.25195,-2.17774 75.590551,75.590551 0 0 1 -0.0703,-0.72656 75.59055,75.59055 0 0 1 0,-0.002 75.590551,75.590551 0 0 1 -0.0625,-0.72657 75.59055,75.59055 0 0 1 0,-0.002 75.59055,75.59055 0 0 1 -0.14649,-2.1875 75.590551,75.590551 0 0 1 -0.0957,-2.92187 75.59055,75.59055 0 0 1 0,-0.002 75.590551,75.590551 0 0 1 -0.008,-0.72851 75.59055,75.59055 0 0 1 0,-0.002 75.590551,75.590551 0 0 1 0,-0.29882 75.590551,75.590551 0 0 1 0.004,-0.73047 75.59055,75.59055 0 0 1 0,-0.002 75.590551,75.590551 0 0 1 0.16992,-4.38086 75.59055,75.59055 0 0 1 0,-0.002 75.590551,75.590551 0 0 1 0.0527,-0.72851 75.59055,75.59055 0 0 1 0.12109,-1.39454 75.590551,75.590551 0 0 1 0.006,-0.0605 75.59055,75.59055 0 0 1 0,-0.002 75.590551,75.590551 0 0 1 0.0742,-0.72656 75.59055,75.59055 0 0 1 0.26368,-2.17773 75.59055,75.59055 0 0 1 0.32812,-2.16797 75.590551,75.590551 0 0 1 0.39062,-2.1582 75.59055,75.59055 0 0 1 0.29493,-1.43164 75.590551,75.590551 0 0 1 0.32226,-1.42579 75.59055,75.59055 0 0 1 0,-0.002 75.590551,75.590551 0 0 1 0.53516,-2.125 75.59055,75.59055 0 0 1 0,-0.002 75.590551,75.590551 0 0 1 0.0527,-0.19141 75.59055,75.59055 0 0 1 0.54492,-1.91797 75.59055,75.59055 0 0 1 0.43165,-1.39648 75.59055,75.59055 0 0 1 0.45898,-1.38867 75.59055,75.59055 0 0 1 0.73828,-2.06446 75.59055,75.59055 0 0 1 0.52539,-1.36523 75.59055,75.59055 0 0 1 0.55078,-1.35352 75.59055,75.59055 0 0 1 0.57813,-1.34375 75.590551,75.590551 0 0 1 0.91406,-1.99218 75.59055,75.59055 0 0 1 0.002,-0.002 75.59055,75.59055 0 0 1 0.64063,-1.3125 75.59055,75.59055 0 0 1 0.66797,-1.30078 75.59055,75.59055 0 0 1 1.77734,-3.19531 75.59055,75.59055 0 0 1 0.75391,-1.25195 75.59055,75.59055 0 0 1 0.77734,-1.23828 75.590551,75.590551 0 0 1 0.39844,-0.61329 75.59055,75.59055 0 0 1 1.22851,-1.8164 75.59055,75.59055 0 0 1 1.09766,-1.53125 75.590551,75.590551 0 0 1 0.18359,-0.24805 75.59055,75.59055 0 0 1 0,-0.002 75.590551,75.590551 0 0 1 0.1875,-0.25 75.59055,75.59055 0 0 1 0.69532,-0.91406 75.590551,75.590551 0 0 1 0.44922,-0.57618 75.59055,75.59055 0 0 1 0,-0.002 75.590551,75.590551 0 0 1 0.45507,-0.57031 75.59055,75.59055 0 0 1 0,-0.002 75.590551,75.590551 0 0 1 0.46094,-0.5664 75.59055,75.59055 0 0 1 2.38477,-2.76953 75.59055,75.59055 0 0 1 2.51757,-2.65235 75.59055,75.59055 0 0 1 0.51758,-0.51562 75.590551,75.590551 0 0 1 0.52149,-0.50977 75.59055,75.59055 0 0 1 2.6914,-2.47461 75.590551,75.590551 0 0 1 0.55079,-0.48047 75.59055,75.59055 0 0 1 1.11914,-0.9414 75.590551,75.590551 0 0 1 0.56445,-0.46289 75.59055,75.59055 0 0 1 1.14648,-0.91016 75.590551,75.590551 0 0 1 0.57813,-0.44531 75.59055,75.59055 0 0 1 0.58398,-0.44141 75.590551,75.590551 0 0 1 0.58594,-0.43554 75.59055,75.59055 0 0 1 1.78906,-1.27149 75.590551,75.590551 0 0 1 0.60352,-0.41211 75.59055,75.59055 0 0 1 1.21875,-0.80469 75.59055,75.59055 0 0 1 1.23633,-0.7832 75.590551,75.590551 0 0 1 1.24804,-0.75976 75.59055,75.59055 0 0 1 3.83594,-2.12891 75.59055,75.59055 0 0 1 1.30469,-0.66016 75.590551,75.590551 0 0 1 0.65625,-0.32031 75.59055,75.59055 0 0 1 4.68359,-2.0625 75.590551,75.590551 0 0 1 1.36133,-0.53125 75.59055,75.59055 0 0 1 3.45117,-1.21094 75.59055,75.59055 0 0 1 1.39258,-0.4375 75.59055,75.59055 0 0 1 2.10937,-0.60547 75.590551,75.590551 0 0 1 0.70508,-0.1875 75.59055,75.59055 0 0 1 4.27539,-0.98437 75.590551,75.590551 0 0 1 0.7168,-0.14063 75.59055,75.59055 0 0 1 0.7207,-0.13281 75.59055,75.59055 0 0 1 1.43946,-0.24414 75.59055,75.59055 0 0 1 0.72461,-0.11328 75.59055,75.59055 0 0 1 1.44531,-0.20312 75.59055,75.59055 0 0 1 0.002,0 75.59055,75.59055 0 0 1 2.17774,-0.25196 75.59055,75.59055 0 0 1 0.002,0 75.59055,75.59055 0 0 1 1.45312,-0.13281 75.59055,75.59055 0 0 1 0.002,0 75.59055,75.59055 0 0 1 2.1875,-0.14649 75.59055,75.59055 0 0 1 0.002,0 75.59055,75.59055 0 0 1 1.45898,-0.0625 75.59055,75.59055 0 0 1 1.4629,-0.0332 75.59055,75.59055 0 0 1 1.03125,-0.008 75.590551,75.590551 0 0 1 0.73046,0.004 75.59055,75.59055 0 0 1 2.19141,0.0527 75.59055,75.59055 0 0 1 0.002,0 75.59055,75.59055 0 0 1 2.18946,0.11719 75.590551,75.590551 0 0 1 0.72851,0.0527 75.59055,75.59055 0 0 1 0.002,0 75.590551,75.590551 0 0 1 0.72656,0.0606 75.59055,75.59055 0 0 1 0.002,0 75.590551,75.590551 0 0 1 1.45313,0.14062 75.59055,75.59055 0 0 1 0.002,0 75.59055,75.59055 0 0 1 1.45117,0.16993 75.59055,75.59055 0 0 1 1.44922,0.19726 75.590551,75.590551 0 0 1 1.44336,0.22461 75.59055,75.59055 0 0 1 0.002,0 75.590551,75.590551 0 0 1 0.71875,0.12305 75.59055,75.59055 0 0 1 0.002,0 75.590551,75.590551 0 0 1 1.43554,0.26758 75.59055,75.59055 0 0 1 0.002,0 75.590551,75.590551 0 0 1 0.71484,0.14453 75.59055,75.59055 0 0 1 0.002,0 75.590551,75.590551 0 0 1 1.42774,0.30859 75.59055,75.59055 0 0 1 0.002,0 75.590551,75.590551 0 0 1 1.42188,0.33594 75.59055,75.59055 0 0 1 2.12109,0.55664 75.59055,75.59055 0 0 1 1.4043,0.4043 75.59055,75.59055 0 0 1 0.002,0 75.590551,75.590551 0 0 1 0.69726,0.21289 75.59055,75.59055 0 0 1 0.002,0 75.590551,75.590551 0 0 1 2.08398,0.67773 75.59055,75.59055 0 0 1 0.002,0 75.59055,75.59055 0 0 1 2.06445,0.73828 75.590551,75.590551 0 0 1 1.36328,0.52539 75.59055,75.59055 0 0 1 0.002,0 75.59055,75.59055 0 0 1 2.02539,0.83789 75.59055,75.59055 0 0 1 0.002,0 75.590551,75.590551 0 0 1 0.66797,0.29102 75.59055,75.59055 0 0 1 0.002,0 75.590551,75.590551 0 0 1 0.66601,0.29883 75.59055,75.59055 0 0 1 0.002,0 75.59055,75.59055 0 0 1 1.32422,0.61718 75.59055,75.59055 0 0 1 1.96484,0.97266 75.59055,75.59055 0 0 1 0.002,0 75.590551,75.590551 0 0 1 1.29297,0.67969 75.59055,75.59055 0 0 1 0.002,0 75.590551,75.590551 0 0 1 1.2793,0.70508 75.59055,75.59055 0 0 1 0.002,0 75.590551,75.590551 0 0 1 0.63282,0.36132 75.59055,75.59055 0 0 1 0.002,0 75.590551,75.590551 0 0 1 0.63086,0.36719 75.59055,75.59055 0 0 1 1.25195,0.75391 75.59055,75.59055 0 0 1 0.002,0 75.590551,75.590551 0 0 1 0.61914,0.38672 75.59055,75.59055 0 0 1 0.002,0 75.59055,75.59055 0 0 1 1.22851,0.78906 75.59055,75.59055 0 0 1 0.002,0 75.590551,75.590551 0 0 1 0.60742,0.4043 75.59055,75.59055 0 0 1 0.002,0 75.59055,75.59055 0 0 1 1.20508,0.82421 75.59055,75.59055 0 0 1 0.002,0 75.590551,75.590551 0 0 1 0.59571,0.42188 75.59055,75.59055 0 0 1 0.002,0 75.590551,75.590551 0 0 1 0.5918,0.42773 75.59055,75.59055 0 0 1 0.002,0 75.590551,75.590551 0 0 1 1.17188,0.8711 75.59055,75.59055 0 0 1 0.002,0 75.590551,75.590551 0 0 1 0.58008,0.44336 75.59055,75.59055 0 0 1 2.27929,1.83203 75.59055,75.59055 0 0 1 1.11133,0.94922 75.59055,75.59055 0 0 1 0.002,0 75.590551,75.590551 0 0 1 0.54882,0.48242 75.59055,75.59055 0 0 1 1.08399,0.98047 75.590551,75.590551 0 0 1 0.53515,0.49805 75.59055,75.59055 0 0 1 1.05664,1.01171 75.590551,75.590551 0 0 1 1.03516,1.03125 75.59055,75.59055 0 0 1 1.01563,1.05274 75.59055,75.59055 0 0 1 0.99609,1.07031 75.59055,75.59055 0 0 1 1.45312,1.64258 75.59055,75.59055 0 0 1 1.86329,2.25391 75.590551,75.590551 0 0 1 0.89843,1.15429 75.59055,75.59055 0 0 1 0.875,1.16992 75.590551,75.590551 0 0 1 1.27149,1.78711 75.59055,75.59055 0 0 1 0.41211,0.60352 75.590551,75.590551 0 0 1 1.58984,2.45508 75.59055,75.59055 0 0 1 0.75781,1.25 75.59055,75.59055 0 0 1 0.34961,0.59375 l 69.54102,-30.27344 A 151.1811,151.1811 0 0 0 529.13477,335.25977 Z"
         transform="scale(0.26458333)" />
      <path
         id="rect861"
         style="opacity:1;fill:#000000;fill-opacity:1;stroke-width:1.09927"
         d="M 362.1543,143.46289 196.62891,547.29883 107.0332,476.04688 59.4375,534.78125 224.77734,666.27148 226.36328,664.31445 269.625,568.52344 432.05469,172.23633 Z"
         transform="scale(0.26458333)" />
      <g
         id="g935"
         transform="translate(-1.5993613,4.1583395)">
        <path
           style="fill:none;stroke:#000000;stroke-width:4.06571;stroke-linecap:butt;stroke-linejoin:miter;stroke-miterlimit:4;stroke-dasharray:none;stroke-opacity:1"
           d="m 166.57775,19.728669 c -35.19177,-23.2733523 -51.5435,-0.906754 -51.5435,-0.906754"
           id="path846-7" />
        <ellipse
           style="fill:#ffffff;stroke:#000000;stroke-width:4.92190185;stroke-linejoin:round;stroke-miterlimit:4;stroke-dasharray:none;stroke-opacity:1;paint-order:stroke fill markers"
           id="path872-8"
           cx="140.06128"
           cy="31.93717"
           rx="23.923271"
           ry="9.3231001" />
        <ellipse
           style="fill:#000000;fill-opacity:1;stroke:#000000;stroke-width:1.5;stroke-linejoin:round;stroke-miterlimit:4;stroke-dasharray:none;stroke-opacity:1;paint-order:stroke fill markers"
           id="path907"
           cx="128.10762"
           cy="31.889748"
           rx="2.3990419"
           ry="2.2391059" />
        <ellipse
           style="fill:#000000;fill-opacity:1;stroke:#000000;stroke-width:1.5;stroke-linejoin:round;stroke-miterlimit:4;stroke-dasharray:none;stroke-opacity:1;paint-order:stroke fill markers"
           id="path907-5"
           cx="54.192616"
           cy="36.145565"
           rx="2.3990419"
           ry="2.2391059" />
        <path
           style="fill:none;stroke:#000000;stroke-width:4.06571;stroke-linecap:butt;stroke-linejoin:miter;stroke-miterlimit:4;stroke-dasharray:none;stroke-opacity:1"
           d="m 89.242966,19.271295 c -35.19177,-23.2733527 -51.5435,-0.906754 -51.5435,-0.906754"
           id="path846-7-5" />
        <ellipse
           style="fill:#ffffff;stroke:#000000;stroke-width:4.92190185;stroke-linejoin:round;stroke-miterlimit:4;stroke-dasharray:none;stroke-opacity:1;paint-order:stroke fill markers"
           id="path872-8-3"
           cx="62.726486"
           cy="31.479795"
           rx="23.923271"
           ry="9.3231001" />
        <ellipse
           style="fill:#000000;fill-opacity:1;stroke:#000000;stroke-width:1.5;stroke-linejoin:round;stroke-miterlimit:4;stroke-dasharray:none;stroke-opacity:1;paint-order:stroke fill markers"
           id="path907-54"
           cx="50.772827"
           cy="31.432373"
           rx="2.3990419"
           ry="2.2391059" />
      </g>
    </g>
  </g>
</svg>
