<?xml version="1.0" encoding="UTF-8" standalone="no"?>
<!DOCTYPE svg PUBLIC "-//W3C//DTD SVG 1.1//EN" "http://www.w3.org/Graphics/SVG/1.1/DTD/svg11.dtd">
<svg xmlns="http://www.w3.org/2000/svg" xmlns:xlink="http://www.w3.org/1999/xlink" version="1.1" width="227.62pt" height="227.62pt" viewBox="0 0 227.62 227.62">
<g enable-background="new">
<path transform="matrix(1,0,0,-1,113.811008,113.809009)" d="M -64.60797 57.0846 L -79.62956 33.04501 L -103.66917 48.06664 L -88.64758 72.10622 Z M -103.66917 48.06664 " fill="#39ca7d"/>
<path transform="matrix(1,0,0,-1,113.811008,113.809009)" d="M -27.40929 81.74036 L -52.43808 68.43248 L -65.74599 93.46129 L -40.71718 106.76917 Z M -65.74599 93.46129 " fill="#3eca39"/>
<path transform="matrix(1,0,0,-1,113.811008,113.809009)" d="M 17.13237 84.49391 L -11.1971 85.48311 L -10.20789 113.8126 L 18.12157 112.82343 Z M -10.20789 113.8126 " fill="#86ca39"/>
<path transform="matrix(1,0,0,-1,113.811008,113.809009)" d="M 57.0846 64.60797 L 33.04501 79.62956 L 48.06664 103.66917 L 72.10622 88.64758 Z M 48.06664 103.66917 " fill="#cac539"/>
<path transform="matrix(1,0,0,-1,113.811008,113.809009)" d="M 81.74036 27.40929 L 68.43248 52.43808 L 93.46129 65.74599 L 106.76917 40.71718 Z M 93.46129 65.74599 " fill="#ca7d39"/>
<path transform="matrix(1,0,0,-1,113.811008,113.809009)" d="M 84.49391 -17.13237 L 85.48311 11.1971 L 113.8126 10.20789 L 112.82343 -18.12157 Z M 113.8126 10.20789 " fill="#ca393e"/>
<path transform="matrix(1,0,0,-1,113.811008,113.809009)" d="M 64.60797 -57.0846 L 79.62956 -33.04501 L 103.66917 -48.06664 L 88.64758 -72.10622 Z M 103.66917 -48.06664 " fill="#ca3986"/>
<path transform="matrix(1,0,0,-1,113.811008,113.809009)" d="M 27.40929 -81.74036 L 52.43808 -68.43248 L 65.74599 -93.46129 L 40.71718 -106.76917 Z M 65.74599 -93.46129 " fill="#c539ca"/>
<path transform="matrix(1,0,0,-1,113.811008,113.809009)" d="M -17.13237 -84.49391 L 11.1971 -85.48311 L 10.20789 -113.8126 L -18.12157 -112.82343 Z M 10.20789 -113.8126 " fill="#7d39ca"/>
<path transform="matrix(1,0,0,-1,113.811008,113.809009)" d="M -57.0846 -64.60797 L -33.04501 -79.62956 L -48.06664 -103.66917 L -72.10622 -88.64758 Z M -48.06664 -103.66917 " fill="#393eca"/>
<path transform="matrix(1,0,0,-1,113.811008,113.809009)" d="M -81.74036 -27.40929 L -68.43248 -52.43808 L -93.46129 -65.74599 L -106.76917 -40.71718 Z M -93.46129 -65.74599 " fill="#3986ca"/>
<path transform="matrix(1,0,0,-1,113.811008,113.809009)" d="M -84.49391 17.13237 L -85.48311 -11.1971 L -113.8126 -10.20789 L -112.82343 18.12157 Z M -113.8126 -10.20789 " fill="#39cac5"/>
<text fill="#39ca7d" xml:space="preserve" transform="matrix(-.84805 -.52992 .52992 -.84805 89.004 143.334)" font-size="9.9254" font-family="Menlo"><tspan y="41.811" x="41.811 47.805944 53.800886 59.795827 65.8007 71.79564">39CA7D</tspan></text>
<text fill="#3eca39" xml:space="preserve" transform="matrix(-.46947 -.88295 .88295 -.46947 77.565 126.975009)" font-size="9.9254" font-family="Menlo"><tspan y="41.811" x="41.811 47.805944 53.800886 59.795827 65.8007 71.79564">3ECA39</tspan></text>
<text fill="#86ca39" xml:space="preserve" transform="matrix(.0349 -.99939 .99939 .0349 75.838 107.088)" font-size="9.9254" font-family="Menlo"><tspan y="41.811" x="41.811 47.805944 53.800886 59.795827 65.8007 71.79564">86CA39</tspan></text>
<text fill="#cac539" xml:space="preserve" transform="matrix(.52992 -.84805 .84805 .52992 84.286 89.002)" font-size="9.9254" font-family="Menlo"><tspan y="41.811" x="41.811 47.805944 53.800886 59.795827 65.8007 71.79564">CAC539</tspan></text>
<text fill="#ca7d39" xml:space="preserve" transform="matrix(.88295 -.46947 .46947 .88295 100.645008 77.563)" font-size="9.9254" font-family="Menlo"><tspan y="41.811" x="41.811 47.805944 53.800886 59.795827 65.8007 71.79564">CA7D39</tspan></text>
<text fill="#ca393e" xml:space="preserve" transform="matrix(.99939 .0349 -.0349 .99939 120.532 75.836)" font-size="9.9254" font-family="Menlo"><tspan y="41.811" x="41.811 47.805944 53.800886 59.795827 65.8007 71.79564">CA393E</tspan></text>
<text fill="#ca3986" xml:space="preserve" transform="matrix(.84805 .52992 -.52992 .84805 138.619 84.284008)" font-size="9.9254" font-family="Menlo"><tspan y="41.811" x="41.811 47.805944 53.800886 59.795827 65.8007 71.79564">CA3986</tspan></text>
<text fill="#c539ca" xml:space="preserve" transform="matrix(.46947 .88295 -.88295 .46947 150.058 100.643009)" font-size="9.9254" font-family="Menlo"><tspan y="41.811" x="41.811 47.805944 53.800886 59.795827 65.8007 71.79564">C539CA</tspan></text>
<text fill="#7d39ca" xml:space="preserve" transform="matrix(-.0349 .99939 -.99939 -.0349 151.784 120.53)" font-size="9.9254" font-family="Menlo"><tspan y="41.811" x="41.811 47.805944 53.800886 59.795827 65.8007 71.79564">7D39CA</tspan></text>
<text fill="#393eca" xml:space="preserve" transform="matrix(-.52992 .84805 -.84805 -.52992 143.336 138.617)" font-size="9.9254" font-family="Menlo"><tspan y="41.811" x="41.811 47.805944 53.800886 59.795827 65.8007 71.79564">393ECA</tspan></text>
<text fill="#3986ca" xml:space="preserve" transform="matrix(-.88295 .46947 -.46947 -.88295 126.977008 150.056)" font-size="9.9254" font-family="Menlo"><tspan y="41.811" x="41.811 47.805944 53.800886 59.795827 65.8007 71.79564">3986CA</tspan></text>
<text fill="#39cac5" xml:space="preserve" transform="matrix(-.99939 -.0349 .0349 -.99939 107.09 151.782)" font-size="9.9254" font-family="Menlo"><tspan y="41.811" x="41.811 47.805944 53.800886 59.795827 65.8007 71.79564">39CAC5</tspan></text>
</g>
</svg>
